<mxfile host="app.diagrams.net" agent="Mozilla/5.0 (Windows NT 10.0; Win64; x64) AppleWebKit/537.36 (KHTML, like Gecko) Chrome/137.0.0.0 Safari/537.36" version="27.1.6">
  <diagram name="Page-1" id="Bz1g55xTSqnzGxO4RZFX">
    <mxGraphModel dx="2680" dy="1903" grid="1" gridSize="10" guides="1" tooltips="1" connect="1" arrows="1" fold="1" page="1" pageScale="1" pageWidth="850" pageHeight="1100" math="0" shadow="0">
      <root>
        <mxCell id="0" />
        <mxCell id="1" parent="0" />
        <mxCell id="mPa8XAUCrzrkElDD_LWu-1" value="Customer" style="rounded=0;whiteSpace=wrap;html=1;" parent="1" vertex="1">
          <mxGeometry x="100" y="100" width="120" height="60" as="geometry" />
        </mxCell>
        <mxCell id="mPa8XAUCrzrkElDD_LWu-2" value="Places" style="rhombus;whiteSpace=wrap;html=1;" parent="1" vertex="1">
          <mxGeometry x="360" y="90" width="80" height="80" as="geometry" />
        </mxCell>
        <mxCell id="mPa8XAUCrzrkElDD_LWu-5" value="" style="endArrow=none;html=1;rounded=0;entryX=0;entryY=0.5;entryDx=0;entryDy=0;exitX=1;exitY=0.5;exitDx=0;exitDy=0;" parent="1" source="mPa8XAUCrzrkElDD_LWu-1" target="mPa8XAUCrzrkElDD_LWu-2" edge="1">
          <mxGeometry width="50" height="50" relative="1" as="geometry">
            <mxPoint x="260" y="130" as="sourcePoint" />
            <mxPoint x="310" y="80" as="targetPoint" />
          </mxGeometry>
        </mxCell>
        <mxCell id="mPa8XAUCrzrkElDD_LWu-6" value="Oarders" style="rounded=0;whiteSpace=wrap;html=1;" parent="1" vertex="1">
          <mxGeometry x="540" y="100" width="120" height="60" as="geometry" />
        </mxCell>
        <mxCell id="mPa8XAUCrzrkElDD_LWu-7" value="" style="endArrow=none;html=1;rounded=0;exitX=1;exitY=0.5;exitDx=0;exitDy=0;entryX=0;entryY=0.5;entryDx=0;entryDy=0;" parent="1" target="mPa8XAUCrzrkElDD_LWu-6" edge="1">
          <mxGeometry width="50" height="50" relative="1" as="geometry">
            <mxPoint x="440" y="129.5" as="sourcePoint" />
            <mxPoint x="530" y="130" as="targetPoint" />
          </mxGeometry>
        </mxCell>
        <mxCell id="mPa8XAUCrzrkElDD_LWu-8" value="" style="endArrow=none;html=1;rounded=0;entryX=0.5;entryY=0;entryDx=0;entryDy=0;" parent="1" target="mPa8XAUCrzrkElDD_LWu-9" edge="1">
          <mxGeometry width="50" height="50" relative="1" as="geometry">
            <mxPoint x="660" y="130" as="sourcePoint" />
            <mxPoint x="710" y="80" as="targetPoint" />
            <Array as="points">
              <mxPoint x="760" y="130" />
            </Array>
          </mxGeometry>
        </mxCell>
        <mxCell id="mPa8XAUCrzrkElDD_LWu-9" value="Process By" style="rhombus;whiteSpace=wrap;html=1;" parent="1" vertex="1">
          <mxGeometry x="720" y="230" width="80" height="80" as="geometry" />
        </mxCell>
        <mxCell id="mPa8XAUCrzrkElDD_LWu-10" value="Employees" style="rounded=0;whiteSpace=wrap;html=1;" parent="1" vertex="1">
          <mxGeometry x="700" y="390" width="120" height="60" as="geometry" />
        </mxCell>
        <mxCell id="mPa8XAUCrzrkElDD_LWu-11" value="" style="endArrow=none;html=1;rounded=0;exitX=1;exitY=0.5;exitDx=0;exitDy=0;entryX=0.5;entryY=0;entryDx=0;entryDy=0;" parent="1" target="mPa8XAUCrzrkElDD_LWu-10" edge="1">
          <mxGeometry width="50" height="50" relative="1" as="geometry">
            <mxPoint x="760" y="310" as="sourcePoint" />
            <mxPoint x="860" y="310.5" as="targetPoint" />
          </mxGeometry>
        </mxCell>
        <mxCell id="mPa8XAUCrzrkElDD_LWu-12" value="" style="endArrow=none;html=1;rounded=0;exitX=0.5;exitY=0;exitDx=0;exitDy=0;" parent="1" source="mPa8XAUCrzrkElDD_LWu-13" edge="1">
          <mxGeometry width="50" height="50" relative="1" as="geometry">
            <mxPoint x="430" y="270" as="sourcePoint" />
            <mxPoint x="600" y="160" as="targetPoint" />
            <Array as="points">
              <mxPoint x="430" y="220" />
              <mxPoint x="600" y="220" />
            </Array>
          </mxGeometry>
        </mxCell>
        <mxCell id="UHQ08DxGN0Fvqs4MQAJC-29" value="M" style="edgeLabel;html=1;align=center;verticalAlign=middle;resizable=0;points=[];" parent="mPa8XAUCrzrkElDD_LWu-12" vertex="1" connectable="0">
          <mxGeometry x="-0.3347" y="3" relative="1" as="geometry">
            <mxPoint as="offset" />
          </mxGeometry>
        </mxCell>
        <mxCell id="mPa8XAUCrzrkElDD_LWu-13" value="Contains" style="rhombus;whiteSpace=wrap;html=1;" parent="1" vertex="1">
          <mxGeometry x="390" y="270" width="80" height="80" as="geometry" />
        </mxCell>
        <mxCell id="mPa8XAUCrzrkElDD_LWu-14" value="Products" style="rounded=0;whiteSpace=wrap;html=1;" parent="1" vertex="1">
          <mxGeometry x="90" y="370" width="120" height="60" as="geometry" />
        </mxCell>
        <mxCell id="mPa8XAUCrzrkElDD_LWu-15" value="" style="endArrow=none;html=1;rounded=0;exitX=0;exitY=0.5;exitDx=0;exitDy=0;entryX=0.5;entryY=0;entryDx=0;entryDy=0;" parent="1" source="mPa8XAUCrzrkElDD_LWu-13" target="mPa8XAUCrzrkElDD_LWu-14" edge="1">
          <mxGeometry width="50" height="50" relative="1" as="geometry">
            <mxPoint x="429.5" y="350" as="sourcePoint" />
            <mxPoint x="430" y="420" as="targetPoint" />
            <Array as="points">
              <mxPoint x="150" y="310" />
            </Array>
          </mxGeometry>
        </mxCell>
        <mxCell id="mPa8XAUCrzrkElDD_LWu-16" value="Has a" style="rhombus;whiteSpace=wrap;html=1;" parent="1" vertex="1">
          <mxGeometry x="110" y="525" width="80" height="80" as="geometry" />
        </mxCell>
        <mxCell id="mPa8XAUCrzrkElDD_LWu-18" value="" style="endArrow=none;html=1;rounded=0;exitX=0.5;exitY=1;exitDx=0;exitDy=0;entryX=0.5;entryY=0;entryDx=0;entryDy=0;" parent="1" source="mPa8XAUCrzrkElDD_LWu-14" target="mPa8XAUCrzrkElDD_LWu-16" edge="1">
          <mxGeometry width="50" height="50" relative="1" as="geometry">
            <mxPoint x="429.5" y="470" as="sourcePoint" />
            <mxPoint x="430" y="530" as="targetPoint" />
          </mxGeometry>
        </mxCell>
        <mxCell id="mPa8XAUCrzrkElDD_LWu-20" value="PStocks" style="rounded=0;whiteSpace=wrap;html=1;" parent="1" vertex="1">
          <mxGeometry x="375" y="688" width="110" height="50" as="geometry" />
        </mxCell>
        <mxCell id="mPa8XAUCrzrkElDD_LWu-21" value="" style="endArrow=none;html=1;rounded=0;exitX=0.5;exitY=1;exitDx=0;exitDy=0;entryX=0.5;entryY=0;entryDx=0;entryDy=0;" parent="1" source="mPa8XAUCrzrkElDD_LWu-55" target="mPa8XAUCrzrkElDD_LWu-20" edge="1">
          <mxGeometry width="50" height="50" relative="1" as="geometry">
            <mxPoint x="429.5" y="620" as="sourcePoint" />
            <mxPoint x="430" y="680" as="targetPoint" />
          </mxGeometry>
        </mxCell>
        <mxCell id="mPa8XAUCrzrkElDD_LWu-22" value="Suppliers" style="rounded=0;whiteSpace=wrap;html=1;" parent="1" vertex="1">
          <mxGeometry x="-425" y="1125" width="120" height="60" as="geometry" />
        </mxCell>
        <mxCell id="mPa8XAUCrzrkElDD_LWu-23" value="Supply to&amp;nbsp;" style="rhombus;whiteSpace=wrap;html=1;" parent="1" vertex="1">
          <mxGeometry x="-90" y="1115" width="80" height="80" as="geometry" />
        </mxCell>
        <mxCell id="mPa8XAUCrzrkElDD_LWu-24" value="" style="endArrow=none;html=1;rounded=0;entryX=1;entryY=0.5;entryDx=0;entryDy=0;" parent="1" source="mPa8XAUCrzrkElDD_LWu-23" target="mPa8XAUCrzrkElDD_LWu-22" edge="1">
          <mxGeometry width="50" height="50" relative="1" as="geometry">
            <mxPoint x="80" y="340" as="sourcePoint" />
            <mxPoint x="80" y="420" as="targetPoint" />
          </mxGeometry>
        </mxCell>
        <mxCell id="mPa8XAUCrzrkElDD_LWu-31" value="" style="endArrow=none;html=1;rounded=0;entryX=0.5;entryY=1;entryDx=0;entryDy=0;" parent="1" target="mPa8XAUCrzrkElDD_LWu-33" edge="1">
          <mxGeometry width="50" height="50" relative="1" as="geometry">
            <mxPoint x="160" y="100" as="sourcePoint" />
            <mxPoint x="80" y="50" as="targetPoint" />
          </mxGeometry>
        </mxCell>
        <mxCell id="mPa8XAUCrzrkElDD_LWu-33" value="name&amp;nbsp;" style="ellipse;whiteSpace=wrap;html=1;" parent="1" vertex="1">
          <mxGeometry x="10" y="-60" width="100" height="50" as="geometry" />
        </mxCell>
        <mxCell id="mPa8XAUCrzrkElDD_LWu-34" value="" style="endArrow=none;html=1;rounded=0;entryX=0.5;entryY=1;entryDx=0;entryDy=0;" parent="1" target="mPa8XAUCrzrkElDD_LWu-35" edge="1">
          <mxGeometry width="50" height="50" relative="1" as="geometry">
            <mxPoint x="160" y="100" as="sourcePoint" />
            <mxPoint x="170" y="40" as="targetPoint" />
          </mxGeometry>
        </mxCell>
        <mxCell id="mPa8XAUCrzrkElDD_LWu-35" value="&lt;u&gt;Customer_id&lt;/u&gt;" style="ellipse;whiteSpace=wrap;html=1;" parent="1" vertex="1">
          <mxGeometry x="120" y="-20" width="100" height="50" as="geometry" />
        </mxCell>
        <mxCell id="mPa8XAUCrzrkElDD_LWu-36" value="phone" style="ellipse;whiteSpace=wrap;html=1;" parent="1" vertex="1">
          <mxGeometry x="-70" width="100" height="50" as="geometry" />
        </mxCell>
        <mxCell id="mPa8XAUCrzrkElDD_LWu-39" value="" style="endArrow=none;html=1;rounded=0;exitX=0;exitY=0.5;exitDx=0;exitDy=0;entryX=1;entryY=0.5;entryDx=0;entryDy=0;" parent="1" source="mPa8XAUCrzrkElDD_LWu-1" target="mPa8XAUCrzrkElDD_LWu-36" edge="1">
          <mxGeometry width="50" height="50" relative="1" as="geometry">
            <mxPoint x="190" y="120" as="sourcePoint" />
            <mxPoint x="60" y="80" as="targetPoint" />
          </mxGeometry>
        </mxCell>
        <mxCell id="mPa8XAUCrzrkElDD_LWu-40" value="&lt;u&gt;Oarder ID&lt;/u&gt;" style="ellipse;whiteSpace=wrap;html=1;" parent="1" vertex="1">
          <mxGeometry x="410" y="30" width="100" height="50" as="geometry" />
        </mxCell>
        <mxCell id="mPa8XAUCrzrkElDD_LWu-43" value="date" style="ellipse;whiteSpace=wrap;html=1;" parent="1" vertex="1">
          <mxGeometry x="505" y="-30" width="100" height="50" as="geometry" />
        </mxCell>
        <mxCell id="mPa8XAUCrzrkElDD_LWu-44" value="Quantity&amp;nbsp;" style="ellipse;whiteSpace=wrap;html=1;" parent="1" vertex="1">
          <mxGeometry x="640" y="-40" width="100" height="50" as="geometry" />
        </mxCell>
        <mxCell id="mPa8XAUCrzrkElDD_LWu-45" value="Total amount" style="ellipse;whiteSpace=wrap;html=1;" parent="1" vertex="1">
          <mxGeometry x="750" y="10" width="100" height="50" as="geometry" />
        </mxCell>
        <mxCell id="mPa8XAUCrzrkElDD_LWu-46" value="" style="endArrow=none;html=1;rounded=0;entryX=0.5;entryY=1;entryDx=0;entryDy=0;exitX=0;exitY=0;exitDx=0;exitDy=0;" parent="1" source="mPa8XAUCrzrkElDD_LWu-6" target="mPa8XAUCrzrkElDD_LWu-40" edge="1">
          <mxGeometry width="50" height="50" relative="1" as="geometry">
            <mxPoint x="630" y="90" as="sourcePoint" />
            <mxPoint x="510" y="50" as="targetPoint" />
          </mxGeometry>
        </mxCell>
        <mxCell id="mPa8XAUCrzrkElDD_LWu-48" value="" style="endArrow=none;html=1;rounded=0;entryX=0.5;entryY=1;entryDx=0;entryDy=0;exitX=0.25;exitY=0;exitDx=0;exitDy=0;" parent="1" source="mPa8XAUCrzrkElDD_LWu-6" target="mPa8XAUCrzrkElDD_LWu-43" edge="1">
          <mxGeometry width="50" height="50" relative="1" as="geometry">
            <mxPoint x="571" y="110" as="sourcePoint" />
            <mxPoint x="560" y="30" as="targetPoint" />
          </mxGeometry>
        </mxCell>
        <mxCell id="mPa8XAUCrzrkElDD_LWu-49" value="" style="endArrow=none;html=1;rounded=0;entryX=0;entryY=1;entryDx=0;entryDy=0;exitX=0.75;exitY=0;exitDx=0;exitDy=0;" parent="1" source="mPa8XAUCrzrkElDD_LWu-6" target="mPa8XAUCrzrkElDD_LWu-44" edge="1">
          <mxGeometry width="50" height="50" relative="1" as="geometry">
            <mxPoint x="580" y="110" as="sourcePoint" />
            <mxPoint x="680" y="30" as="targetPoint" />
          </mxGeometry>
        </mxCell>
        <mxCell id="mPa8XAUCrzrkElDD_LWu-50" value="" style="endArrow=none;html=1;rounded=0;entryX=0;entryY=0.5;entryDx=0;entryDy=0;exitX=1;exitY=0;exitDx=0;exitDy=0;" parent="1" source="mPa8XAUCrzrkElDD_LWu-6" target="mPa8XAUCrzrkElDD_LWu-45" edge="1">
          <mxGeometry width="50" height="50" relative="1" as="geometry">
            <mxPoint x="640" y="110" as="sourcePoint" />
            <mxPoint x="735" y="63" as="targetPoint" />
          </mxGeometry>
        </mxCell>
        <mxCell id="mPa8XAUCrzrkElDD_LWu-51" value="name" style="ellipse;whiteSpace=wrap;html=1;" parent="1" vertex="1">
          <mxGeometry x="850" y="490" width="100" height="50" as="geometry" />
        </mxCell>
        <mxCell id="mPa8XAUCrzrkElDD_LWu-52" value="&lt;u&gt;EmployeeID&lt;/u&gt;" style="ellipse;whiteSpace=wrap;html=1;" parent="1" vertex="1">
          <mxGeometry x="690" y="500" width="100" height="50" as="geometry" />
        </mxCell>
        <mxCell id="mPa8XAUCrzrkElDD_LWu-53" value="type" style="ellipse;whiteSpace=wrap;html=1;" parent="1" vertex="1">
          <mxGeometry x="880" y="395" width="100" height="50" as="geometry" />
        </mxCell>
        <mxCell id="mPa8XAUCrzrkElDD_LWu-55" value="Has a&amp;nbsp;" style="rhombus;whiteSpace=wrap;html=1;" parent="1" vertex="1">
          <mxGeometry x="390" y="460" width="80" height="80" as="geometry" />
        </mxCell>
        <mxCell id="mPa8XAUCrzrkElDD_LWu-56" value="" style="endArrow=none;html=1;rounded=0;entryX=0.5;entryY=0;entryDx=0;entryDy=0;" parent="1" target="mPa8XAUCrzrkElDD_LWu-55" edge="1">
          <mxGeometry width="50" height="50" relative="1" as="geometry">
            <mxPoint x="600" y="160" as="sourcePoint" />
            <mxPoint x="485" y="480" as="targetPoint" />
            <Array as="points">
              <mxPoint x="600" y="460" />
            </Array>
          </mxGeometry>
        </mxCell>
        <mxCell id="mPa8XAUCrzrkElDD_LWu-60" value="" style="endArrow=none;html=1;rounded=0;exitX=0.5;exitY=1;exitDx=0;exitDy=0;entryX=0;entryY=0.5;entryDx=0;entryDy=0;" parent="1" target="mPa8XAUCrzrkElDD_LWu-20" edge="1">
          <mxGeometry width="50" height="50" relative="1" as="geometry">
            <mxPoint x="149.41000000000003" y="605" as="sourcePoint" />
            <mxPoint x="149.41000000000003" y="750" as="targetPoint" />
            <Array as="points">
              <mxPoint x="149" y="710" />
            </Array>
          </mxGeometry>
        </mxCell>
        <mxCell id="mPa8XAUCrzrkElDD_LWu-61" value="" style="endArrow=none;html=1;rounded=0;exitX=0.5;exitY=0;exitDx=0;exitDy=0;entryX=0.5;entryY=1;entryDx=0;entryDy=0;" parent="1" source="mPa8XAUCrzrkElDD_LWu-52" target="mPa8XAUCrzrkElDD_LWu-10" edge="1">
          <mxGeometry width="50" height="50" relative="1" as="geometry">
            <mxPoint x="770" y="320" as="sourcePoint" />
            <mxPoint x="770" y="400" as="targetPoint" />
          </mxGeometry>
        </mxCell>
        <mxCell id="mPa8XAUCrzrkElDD_LWu-62" value="" style="endArrow=none;html=1;rounded=0;exitX=0.5;exitY=0;exitDx=0;exitDy=0;entryX=0.75;entryY=1;entryDx=0;entryDy=0;" parent="1" source="mPa8XAUCrzrkElDD_LWu-51" target="mPa8XAUCrzrkElDD_LWu-10" edge="1">
          <mxGeometry width="50" height="50" relative="1" as="geometry">
            <mxPoint x="750" y="510" as="sourcePoint" />
            <mxPoint x="770" y="460" as="targetPoint" />
          </mxGeometry>
        </mxCell>
        <mxCell id="mPa8XAUCrzrkElDD_LWu-63" value="" style="endArrow=none;html=1;rounded=0;exitX=0;exitY=0.5;exitDx=0;exitDy=0;entryX=1;entryY=0.5;entryDx=0;entryDy=0;" parent="1" source="mPa8XAUCrzrkElDD_LWu-53" target="mPa8XAUCrzrkElDD_LWu-10" edge="1">
          <mxGeometry width="50" height="50" relative="1" as="geometry">
            <mxPoint x="910" y="500" as="sourcePoint" />
            <mxPoint x="800" y="460" as="targetPoint" />
          </mxGeometry>
        </mxCell>
        <mxCell id="mPa8XAUCrzrkElDD_LWu-64" value="Password" style="ellipse;whiteSpace=wrap;html=1;" parent="1" vertex="1">
          <mxGeometry x="880" y="320" width="100" height="50" as="geometry" />
        </mxCell>
        <mxCell id="mPa8XAUCrzrkElDD_LWu-65" value="" style="endArrow=none;html=1;rounded=0;exitX=0;exitY=0.5;exitDx=0;exitDy=0;entryX=0.75;entryY=0;entryDx=0;entryDy=0;" parent="1" source="mPa8XAUCrzrkElDD_LWu-64" target="mPa8XAUCrzrkElDD_LWu-10" edge="1">
          <mxGeometry width="50" height="50" relative="1" as="geometry">
            <mxPoint x="890" y="430" as="sourcePoint" />
            <mxPoint x="830" y="430" as="targetPoint" />
          </mxGeometry>
        </mxCell>
        <mxCell id="mPa8XAUCrzrkElDD_LWu-67" value="&lt;u&gt;PstockID&lt;/u&gt;" style="ellipse;whiteSpace=wrap;html=1;" parent="1" vertex="1">
          <mxGeometry x="540" y="710" width="100" height="50" as="geometry" />
        </mxCell>
        <mxCell id="mPa8XAUCrzrkElDD_LWu-68" value="Purchase Price" style="ellipse;whiteSpace=wrap;html=1;" parent="1" vertex="1">
          <mxGeometry x="340" y="1240" width="100" height="50" as="geometry" />
        </mxCell>
        <mxCell id="mPa8XAUCrzrkElDD_LWu-70" value="" style="endArrow=none;html=1;rounded=0;exitX=0;exitY=0.5;exitDx=0;exitDy=0;entryX=1;entryY=0.5;entryDx=0;entryDy=0;" parent="1" source="mPa8XAUCrzrkElDD_LWu-67" edge="1" target="mPa8XAUCrzrkElDD_LWu-20">
          <mxGeometry width="50" height="50" relative="1" as="geometry">
            <mxPoint x="550" y="675" as="sourcePoint" />
            <mxPoint x="490" y="710" as="targetPoint" />
          </mxGeometry>
        </mxCell>
        <mxCell id="mPa8XAUCrzrkElDD_LWu-71" value="" style="endArrow=none;html=1;rounded=0;exitX=0.5;exitY=0;exitDx=0;exitDy=0;" parent="1" source="mPa8XAUCrzrkElDD_LWu-68" edge="1">
          <mxGeometry width="50" height="50" relative="1" as="geometry">
            <mxPoint x="550" y="745" as="sourcePoint" />
            <mxPoint x="430" y="1130" as="targetPoint" />
          </mxGeometry>
        </mxCell>
        <mxCell id="mPa8XAUCrzrkElDD_LWu-74" value="&lt;u&gt;ProductID&lt;/u&gt;" style="ellipse;whiteSpace=wrap;html=1;" parent="1" vertex="1">
          <mxGeometry x="-60" y="280" width="100" height="50" as="geometry" />
        </mxCell>
        <mxCell id="mPa8XAUCrzrkElDD_LWu-75" value="Produc Name" style="ellipse;whiteSpace=wrap;html=1;" parent="1" vertex="1">
          <mxGeometry x="-70" y="360" width="100" height="50" as="geometry" />
        </mxCell>
        <mxCell id="mPa8XAUCrzrkElDD_LWu-76" value="Description" style="ellipse;whiteSpace=wrap;html=1;" parent="1" vertex="1">
          <mxGeometry x="-70" y="450" width="100" height="50" as="geometry" />
        </mxCell>
        <mxCell id="mPa8XAUCrzrkElDD_LWu-77" value="" style="endArrow=none;html=1;rounded=0;exitX=0;exitY=0.5;exitDx=0;exitDy=0;entryX=1;entryY=0.5;entryDx=0;entryDy=0;" parent="1" source="mPa8XAUCrzrkElDD_LWu-14" target="mPa8XAUCrzrkElDD_LWu-74" edge="1">
          <mxGeometry width="50" height="50" relative="1" as="geometry">
            <mxPoint x="110" y="170" as="sourcePoint" />
            <mxPoint x="90" y="200" as="targetPoint" />
          </mxGeometry>
        </mxCell>
        <mxCell id="mPa8XAUCrzrkElDD_LWu-78" value="" style="endArrow=none;html=1;rounded=0;entryX=1;entryY=0.5;entryDx=0;entryDy=0;" parent="1" target="mPa8XAUCrzrkElDD_LWu-75" edge="1">
          <mxGeometry width="50" height="50" relative="1" as="geometry">
            <mxPoint x="90" y="400" as="sourcePoint" />
            <mxPoint x="70" y="320" as="targetPoint" />
          </mxGeometry>
        </mxCell>
        <mxCell id="mPa8XAUCrzrkElDD_LWu-79" value="" style="endArrow=none;html=1;rounded=0;entryX=1;entryY=0.5;entryDx=0;entryDy=0;" parent="1" target="mPa8XAUCrzrkElDD_LWu-76" edge="1">
          <mxGeometry width="50" height="50" relative="1" as="geometry">
            <mxPoint x="90" y="400" as="sourcePoint" />
            <mxPoint x="40" y="395" as="targetPoint" />
          </mxGeometry>
        </mxCell>
        <mxCell id="mPa8XAUCrzrkElDD_LWu-80" value="&lt;u&gt;SupplierId&lt;/u&gt;" style="ellipse;whiteSpace=wrap;html=1;" parent="1" vertex="1">
          <mxGeometry x="-290" y="990" width="100" height="50" as="geometry" />
        </mxCell>
        <mxCell id="mPa8XAUCrzrkElDD_LWu-81" value="" style="endArrow=none;html=1;rounded=0;entryX=0.5;entryY=1;entryDx=0;entryDy=0;exitX=0.5;exitY=0;exitDx=0;exitDy=0;" parent="1" source="mPa8XAUCrzrkElDD_LWu-22" target="mPa8XAUCrzrkElDD_LWu-80" edge="1">
          <mxGeometry width="50" height="50" relative="1" as="geometry">
            <mxPoint x="100" y="410" as="sourcePoint" />
            <mxPoint x="40" y="485" as="targetPoint" />
          </mxGeometry>
        </mxCell>
        <mxCell id="mPa8XAUCrzrkElDD_LWu-82" value="Name" style="ellipse;whiteSpace=wrap;html=1;" parent="1" vertex="1">
          <mxGeometry x="-525" y="990" width="100" height="50" as="geometry" />
        </mxCell>
        <mxCell id="mPa8XAUCrzrkElDD_LWu-83" value="" style="endArrow=none;html=1;rounded=0;entryX=0.5;entryY=1;entryDx=0;entryDy=0;exitX=0.5;exitY=0;exitDx=0;exitDy=0;" parent="1" source="mPa8XAUCrzrkElDD_LWu-22" target="mPa8XAUCrzrkElDD_LWu-82" edge="1">
          <mxGeometry width="50" height="50" relative="1" as="geometry">
            <mxPoint x="-190" y="850" as="sourcePoint" />
            <mxPoint x="-100" y="790" as="targetPoint" />
          </mxGeometry>
        </mxCell>
        <mxCell id="mPa8XAUCrzrkElDD_LWu-84" value="Telephone" style="ellipse;whiteSpace=wrap;html=1;" parent="1" vertex="1">
          <mxGeometry x="-600" y="1130" width="100" height="50" as="geometry" />
        </mxCell>
        <mxCell id="mPa8XAUCrzrkElDD_LWu-85" value="" style="endArrow=none;html=1;rounded=0;entryX=1;entryY=0.5;entryDx=0;entryDy=0;exitX=0;exitY=0.5;exitDx=0;exitDy=0;" parent="1" source="mPa8XAUCrzrkElDD_LWu-22" target="mPa8XAUCrzrkElDD_LWu-84" edge="1">
          <mxGeometry width="50" height="50" relative="1" as="geometry">
            <mxPoint x="-190" y="850" as="sourcePoint" />
            <mxPoint x="-230" y="795" as="targetPoint" />
          </mxGeometry>
        </mxCell>
        <mxCell id="mPa8XAUCrzrkElDD_LWu-86" value="Brands" style="rounded=0;whiteSpace=wrap;html=1;" parent="1" vertex="1">
          <mxGeometry x="-360" y="550" width="120" height="60" as="geometry" />
        </mxCell>
        <mxCell id="mPa8XAUCrzrkElDD_LWu-87" value="Have" style="rhombus;whiteSpace=wrap;html=1;" parent="1" vertex="1">
          <mxGeometry x="-110" y="540" width="80" height="80" as="geometry" />
        </mxCell>
        <mxCell id="mPa8XAUCrzrkElDD_LWu-88" value="" style="endArrow=none;html=1;rounded=0;entryX=1;entryY=0.5;entryDx=0;entryDy=0;exitX=0.25;exitY=1;exitDx=0;exitDy=0;" parent="1" source="mPa8XAUCrzrkElDD_LWu-14" target="mPa8XAUCrzrkElDD_LWu-87" edge="1">
          <mxGeometry width="50" height="50" relative="1" as="geometry">
            <mxPoint x="100" y="410" as="sourcePoint" />
            <mxPoint x="40" y="485" as="targetPoint" />
            <Array as="points">
              <mxPoint x="100" y="580" />
            </Array>
          </mxGeometry>
        </mxCell>
        <mxCell id="mPa8XAUCrzrkElDD_LWu-89" value="" style="endArrow=none;html=1;rounded=0;entryX=1;entryY=0.5;entryDx=0;entryDy=0;exitX=0;exitY=0.5;exitDx=0;exitDy=0;" parent="1" source="mPa8XAUCrzrkElDD_LWu-87" target="mPa8XAUCrzrkElDD_LWu-86" edge="1">
          <mxGeometry width="50" height="50" relative="1" as="geometry">
            <mxPoint x="-120" y="580" as="sourcePoint" />
            <mxPoint x="40" y="485" as="targetPoint" />
          </mxGeometry>
        </mxCell>
        <mxCell id="mPa8XAUCrzrkElDD_LWu-91" value="&lt;u&gt;BrandID&lt;/u&gt;" style="ellipse;whiteSpace=wrap;html=1;" parent="1" vertex="1">
          <mxGeometry x="-490" y="450" width="100" height="50" as="geometry" />
        </mxCell>
        <mxCell id="mPa8XAUCrzrkElDD_LWu-92" value="Name" style="ellipse;whiteSpace=wrap;html=1;" parent="1" vertex="1">
          <mxGeometry x="-570" y="525" width="100" height="50" as="geometry" />
        </mxCell>
        <mxCell id="mPa8XAUCrzrkElDD_LWu-93" value="Description" style="ellipse;whiteSpace=wrap;html=1;" parent="1" vertex="1">
          <mxGeometry x="-525" y="620" width="100" height="50" as="geometry" />
        </mxCell>
        <mxCell id="mPa8XAUCrzrkElDD_LWu-94" value="" style="endArrow=none;html=1;rounded=0;entryX=1;entryY=1;entryDx=0;entryDy=0;exitX=0.25;exitY=0;exitDx=0;exitDy=0;" parent="1" source="mPa8XAUCrzrkElDD_LWu-86" target="mPa8XAUCrzrkElDD_LWu-91" edge="1">
          <mxGeometry width="50" height="50" relative="1" as="geometry">
            <mxPoint x="-100" y="590" as="sourcePoint" />
            <mxPoint x="-230" y="590" as="targetPoint" />
          </mxGeometry>
        </mxCell>
        <mxCell id="mPa8XAUCrzrkElDD_LWu-95" value="" style="endArrow=none;html=1;rounded=0;entryX=1;entryY=0.5;entryDx=0;entryDy=0;exitX=0;exitY=0.5;exitDx=0;exitDy=0;" parent="1" source="mPa8XAUCrzrkElDD_LWu-86" target="mPa8XAUCrzrkElDD_LWu-92" edge="1">
          <mxGeometry width="50" height="50" relative="1" as="geometry">
            <mxPoint x="-320" y="560" as="sourcePoint" />
            <mxPoint x="-394" y="502" as="targetPoint" />
          </mxGeometry>
        </mxCell>
        <mxCell id="mPa8XAUCrzrkElDD_LWu-96" value="" style="endArrow=none;html=1;rounded=0;entryX=1;entryY=0.5;entryDx=0;entryDy=0;exitX=0;exitY=0.5;exitDx=0;exitDy=0;" parent="1" source="mPa8XAUCrzrkElDD_LWu-86" target="mPa8XAUCrzrkElDD_LWu-93" edge="1">
          <mxGeometry width="50" height="50" relative="1" as="geometry">
            <mxPoint x="-350" y="590" as="sourcePoint" />
            <mxPoint x="-460" y="560" as="targetPoint" />
          </mxGeometry>
        </mxCell>
        <mxCell id="UHQ08DxGN0Fvqs4MQAJC-1" value="Quantity" style="ellipse;whiteSpace=wrap;html=1;" parent="1" vertex="1">
          <mxGeometry x="480" y="540" width="100" height="50" as="geometry" />
        </mxCell>
        <mxCell id="UHQ08DxGN0Fvqs4MQAJC-2" value="" style="endArrow=none;html=1;rounded=0;exitX=0.5;exitY=1;exitDx=0;exitDy=0;entryX=0.5;entryY=0;entryDx=0;entryDy=0;" parent="1" source="UHQ08DxGN0Fvqs4MQAJC-1" target="mPa8XAUCrzrkElDD_LWu-20" edge="1">
          <mxGeometry width="50" height="50" relative="1" as="geometry">
            <mxPoint x="550" y="675" as="sourcePoint" />
            <mxPoint x="495" y="720" as="targetPoint" />
          </mxGeometry>
        </mxCell>
        <mxCell id="UHQ08DxGN0Fvqs4MQAJC-8" value="Returned stocks" style="rounded=0;whiteSpace=wrap;html=1;" parent="1" vertex="1">
          <mxGeometry x="860" y="1130" width="110" height="55" as="geometry" />
        </mxCell>
        <mxCell id="UHQ08DxGN0Fvqs4MQAJC-11" value="Returned Date" style="ellipse;whiteSpace=wrap;html=1;" parent="1" vertex="1">
          <mxGeometry x="1060" y="1010" width="100" height="50" as="geometry" />
        </mxCell>
        <mxCell id="UHQ08DxGN0Fvqs4MQAJC-12" value="Quantity" style="ellipse;whiteSpace=wrap;html=1;" parent="1" vertex="1">
          <mxGeometry x="1090" y="1100" width="100" height="50" as="geometry" />
        </mxCell>
        <mxCell id="UHQ08DxGN0Fvqs4MQAJC-13" value="Reason" style="ellipse;whiteSpace=wrap;html=1;" parent="1" vertex="1">
          <mxGeometry x="1010" y="1220" width="100" height="50" as="geometry" />
        </mxCell>
        <mxCell id="UHQ08DxGN0Fvqs4MQAJC-16" value="" style="endArrow=none;html=1;rounded=0;entryX=0.5;entryY=1;entryDx=0;entryDy=0;" parent="1" target="mPa8XAUCrzrkElDD_LWu-20" edge="1">
          <mxGeometry width="50" height="50" relative="1" as="geometry">
            <mxPoint x="430" y="910" as="sourcePoint" />
            <mxPoint x="950" y="805" as="targetPoint" />
          </mxGeometry>
        </mxCell>
        <mxCell id="UHQ08DxGN0Fvqs4MQAJC-18" value="" style="endArrow=none;html=1;rounded=0;entryX=0;entryY=0.5;entryDx=0;entryDy=0;" parent="1" target="UHQ08DxGN0Fvqs4MQAJC-11" edge="1">
          <mxGeometry width="50" height="50" relative="1" as="geometry">
            <mxPoint x="920" y="1130" as="sourcePoint" />
            <mxPoint x="1140" y="770" as="targetPoint" />
          </mxGeometry>
        </mxCell>
        <mxCell id="UHQ08DxGN0Fvqs4MQAJC-20" value="" style="endArrow=none;html=1;rounded=0;entryX=0;entryY=0.5;entryDx=0;entryDy=0;exitX=1;exitY=0.5;exitDx=0;exitDy=0;" parent="1" source="UHQ08DxGN0Fvqs4MQAJC-8" target="UHQ08DxGN0Fvqs4MQAJC-12" edge="1">
          <mxGeometry width="50" height="50" relative="1" as="geometry">
            <mxPoint x="1120" y="845" as="sourcePoint" />
            <mxPoint x="1190" y="805" as="targetPoint" />
          </mxGeometry>
        </mxCell>
        <mxCell id="UHQ08DxGN0Fvqs4MQAJC-21" value="" style="endArrow=none;html=1;rounded=0;entryX=0;entryY=0;entryDx=0;entryDy=0;exitX=1;exitY=0.5;exitDx=0;exitDy=0;" parent="1" target="UHQ08DxGN0Fvqs4MQAJC-13" edge="1" source="UHQ08DxGN0Fvqs4MQAJC-8">
          <mxGeometry width="50" height="50" relative="1" as="geometry">
            <mxPoint x="1120" y="850" as="sourcePoint" />
            <mxPoint x="1200" y="895" as="targetPoint" />
          </mxGeometry>
        </mxCell>
        <mxCell id="UHQ08DxGN0Fvqs4MQAJC-24" value="Date" style="ellipse;whiteSpace=wrap;html=1;" parent="1" vertex="1">
          <mxGeometry x="270" y="590" width="100" height="50" as="geometry" />
        </mxCell>
        <mxCell id="UHQ08DxGN0Fvqs4MQAJC-25" value="" style="endArrow=none;html=1;rounded=0;exitX=1;exitY=1;exitDx=0;exitDy=0;entryX=0.25;entryY=0;entryDx=0;entryDy=0;" parent="1" source="UHQ08DxGN0Fvqs4MQAJC-24" target="mPa8XAUCrzrkElDD_LWu-20" edge="1">
          <mxGeometry width="50" height="50" relative="1" as="geometry">
            <mxPoint x="350" y="790" as="sourcePoint" />
            <mxPoint x="413" y="745" as="targetPoint" />
          </mxGeometry>
        </mxCell>
        <mxCell id="UHQ08DxGN0Fvqs4MQAJC-26" value="1" style="text;html=1;align=center;verticalAlign=middle;resizable=0;points=[];autosize=1;strokeColor=none;fillColor=none;" parent="1" vertex="1">
          <mxGeometry x="255" y="98" width="30" height="30" as="geometry" />
        </mxCell>
        <mxCell id="UHQ08DxGN0Fvqs4MQAJC-27" value="N" style="text;html=1;align=center;verticalAlign=middle;resizable=0;points=[];autosize=1;strokeColor=none;fillColor=none;" parent="1" vertex="1">
          <mxGeometry x="470" y="100" width="30" height="30" as="geometry" />
        </mxCell>
        <mxCell id="UHQ08DxGN0Fvqs4MQAJC-28" value="N" style="text;html=1;align=center;verticalAlign=middle;resizable=0;points=[];autosize=1;strokeColor=none;fillColor=none;" parent="1" vertex="1">
          <mxGeometry x="205" y="288" width="30" height="30" as="geometry" />
        </mxCell>
        <mxCell id="UHQ08DxGN0Fvqs4MQAJC-30" value="1" style="text;html=1;align=center;verticalAlign=middle;resizable=0;points=[];autosize=1;strokeColor=none;fillColor=none;" parent="1" vertex="1">
          <mxGeometry x="735" y="328" width="30" height="30" as="geometry" />
        </mxCell>
        <mxCell id="UHQ08DxGN0Fvqs4MQAJC-31" value="M" style="text;html=1;align=center;verticalAlign=middle;resizable=0;points=[];autosize=1;strokeColor=none;fillColor=none;" parent="1" vertex="1">
          <mxGeometry x="725" y="138" width="30" height="30" as="geometry" />
        </mxCell>
        <mxCell id="UHQ08DxGN0Fvqs4MQAJC-32" value="1" style="text;html=1;align=center;verticalAlign=middle;resizable=0;points=[];autosize=1;strokeColor=none;fillColor=none;" parent="1" vertex="1">
          <mxGeometry x="605" y="328" width="30" height="30" as="geometry" />
        </mxCell>
        <mxCell id="UHQ08DxGN0Fvqs4MQAJC-33" value="M" style="text;html=1;align=center;verticalAlign=middle;resizable=0;points=[];autosize=1;strokeColor=none;fillColor=none;" parent="1" vertex="1">
          <mxGeometry x="395" y="548" width="30" height="30" as="geometry" />
        </mxCell>
        <mxCell id="UHQ08DxGN0Fvqs4MQAJC-34" value="1" style="text;html=1;align=center;verticalAlign=middle;resizable=0;points=[];autosize=1;strokeColor=none;fillColor=none;" parent="1" vertex="1">
          <mxGeometry x="155" y="478" width="30" height="30" as="geometry" />
        </mxCell>
        <mxCell id="UHQ08DxGN0Fvqs4MQAJC-35" value="M" style="text;html=1;align=center;verticalAlign=middle;resizable=0;points=[];autosize=1;strokeColor=none;fillColor=none;" parent="1" vertex="1">
          <mxGeometry x="155" y="660" width="30" height="30" as="geometry" />
        </mxCell>
        <mxCell id="UHQ08DxGN0Fvqs4MQAJC-36" value="M" style="text;html=1;align=center;verticalAlign=middle;resizable=0;points=[];autosize=1;strokeColor=none;fillColor=none;" parent="1" vertex="1">
          <mxGeometry x="25" y="538" width="30" height="30" as="geometry" />
        </mxCell>
        <mxCell id="UHQ08DxGN0Fvqs4MQAJC-37" value="1" style="text;html=1;align=center;verticalAlign=middle;resizable=0;points=[];autosize=1;strokeColor=none;fillColor=none;" parent="1" vertex="1">
          <mxGeometry x="-205" y="548" width="30" height="30" as="geometry" />
        </mxCell>
        <mxCell id="UHQ08DxGN0Fvqs4MQAJC-40" value="1" style="text;html=1;align=center;verticalAlign=middle;resizable=0;points=[];autosize=1;strokeColor=none;fillColor=none;" parent="1" vertex="1">
          <mxGeometry x="790" y="750" width="30" height="30" as="geometry" />
        </mxCell>
        <mxCell id="Gm5ylaPToZTuttdK2CZf-1" value="Payment Type" style="ellipse;whiteSpace=wrap;html=1;" vertex="1" parent="1">
          <mxGeometry x="800" y="70" width="100" height="50" as="geometry" />
        </mxCell>
        <mxCell id="Gm5ylaPToZTuttdK2CZf-2" value="" style="endArrow=none;html=1;rounded=0;entryX=0;entryY=0.5;entryDx=0;entryDy=0;exitX=1;exitY=0.5;exitDx=0;exitDy=0;" edge="1" parent="1" source="mPa8XAUCrzrkElDD_LWu-6" target="Gm5ylaPToZTuttdK2CZf-1">
          <mxGeometry width="50" height="50" relative="1" as="geometry">
            <mxPoint x="670" y="110" as="sourcePoint" />
            <mxPoint x="760" y="45" as="targetPoint" />
          </mxGeometry>
        </mxCell>
        <mxCell id="Gm5ylaPToZTuttdK2CZf-4" value="Stored in&amp;nbsp;" style="rhombus;whiteSpace=wrap;html=1;" vertex="1" parent="1">
          <mxGeometry x="390" y="910" width="80" height="80" as="geometry" />
        </mxCell>
        <mxCell id="Gm5ylaPToZTuttdK2CZf-5" value="Stocks" style="rounded=0;whiteSpace=wrap;html=1;" vertex="1" parent="1">
          <mxGeometry x="375" y="1130" width="110" height="50" as="geometry" />
        </mxCell>
        <mxCell id="Gm5ylaPToZTuttdK2CZf-6" value="" style="endArrow=none;html=1;rounded=0;entryX=0.5;entryY=0;entryDx=0;entryDy=0;exitX=0.5;exitY=1;exitDx=0;exitDy=0;" edge="1" parent="1" source="Gm5ylaPToZTuttdK2CZf-4" target="Gm5ylaPToZTuttdK2CZf-5">
          <mxGeometry width="50" height="50" relative="1" as="geometry">
            <mxPoint x="-100" y="590" as="sourcePoint" />
            <mxPoint x="-230" y="590" as="targetPoint" />
          </mxGeometry>
        </mxCell>
        <mxCell id="Gm5ylaPToZTuttdK2CZf-7" value="&lt;u&gt;StockID&lt;/u&gt;" style="ellipse;whiteSpace=wrap;html=1;" vertex="1" parent="1">
          <mxGeometry x="470" y="1020" width="100" height="50" as="geometry" />
        </mxCell>
        <mxCell id="Gm5ylaPToZTuttdK2CZf-9" value="&lt;u&gt;ProductID&lt;/u&gt;" style="ellipse;whiteSpace=wrap;html=1;" vertex="1" parent="1">
          <mxGeometry x="560" y="1170" width="100" height="50" as="geometry" />
        </mxCell>
        <mxCell id="Gm5ylaPToZTuttdK2CZf-10" value="Mfg Date" style="ellipse;whiteSpace=wrap;html=1;" vertex="1" parent="1">
          <mxGeometry x="470" y="1230" width="100" height="50" as="geometry" />
        </mxCell>
        <mxCell id="Gm5ylaPToZTuttdK2CZf-11" value="Exp Date" style="ellipse;whiteSpace=wrap;html=1;" vertex="1" parent="1">
          <mxGeometry x="260" y="1020" width="100" height="50" as="geometry" />
        </mxCell>
        <mxCell id="Gm5ylaPToZTuttdK2CZf-12" value="&lt;u&gt;Quantity&lt;/u&gt;" style="ellipse;whiteSpace=wrap;html=1;" vertex="1" parent="1">
          <mxGeometry x="190" y="1170" width="100" height="50" as="geometry" />
        </mxCell>
        <mxCell id="Gm5ylaPToZTuttdK2CZf-13" value="Selling Price" style="ellipse;whiteSpace=wrap;html=1;" vertex="1" parent="1">
          <mxGeometry x="235" y="1220" width="100" height="50" as="geometry" />
        </mxCell>
        <mxCell id="Gm5ylaPToZTuttdK2CZf-15" value="" style="endArrow=none;html=1;rounded=0;exitX=0.5;exitY=1;exitDx=0;exitDy=0;entryX=0.5;entryY=0;entryDx=0;entryDy=0;" edge="1" parent="1" source="Gm5ylaPToZTuttdK2CZf-5" target="Gm5ylaPToZTuttdK2CZf-10">
          <mxGeometry width="50" height="50" relative="1" as="geometry">
            <mxPoint x="400" y="1250" as="sourcePoint" />
            <mxPoint x="440" y="1140" as="targetPoint" />
          </mxGeometry>
        </mxCell>
        <mxCell id="Gm5ylaPToZTuttdK2CZf-16" value="" style="endArrow=none;html=1;rounded=0;exitX=0.75;exitY=1;exitDx=0;exitDy=0;entryX=0;entryY=0.5;entryDx=0;entryDy=0;" edge="1" parent="1" source="Gm5ylaPToZTuttdK2CZf-5" target="Gm5ylaPToZTuttdK2CZf-9">
          <mxGeometry width="50" height="50" relative="1" as="geometry">
            <mxPoint x="440" y="1190" as="sourcePoint" />
            <mxPoint x="530" y="1240" as="targetPoint" />
          </mxGeometry>
        </mxCell>
        <mxCell id="Gm5ylaPToZTuttdK2CZf-17" value="" style="endArrow=none;html=1;rounded=0;exitX=0.75;exitY=0;exitDx=0;exitDy=0;entryX=0.5;entryY=1;entryDx=0;entryDy=0;" edge="1" parent="1" source="Gm5ylaPToZTuttdK2CZf-5" target="Gm5ylaPToZTuttdK2CZf-7">
          <mxGeometry width="50" height="50" relative="1" as="geometry">
            <mxPoint x="468" y="1190" as="sourcePoint" />
            <mxPoint x="570" y="1205" as="targetPoint" />
          </mxGeometry>
        </mxCell>
        <mxCell id="Gm5ylaPToZTuttdK2CZf-18" value="" style="endArrow=none;html=1;rounded=0;exitX=0.25;exitY=0;exitDx=0;exitDy=0;entryX=0.5;entryY=1;entryDx=0;entryDy=0;" edge="1" parent="1" source="Gm5ylaPToZTuttdK2CZf-5" target="Gm5ylaPToZTuttdK2CZf-11">
          <mxGeometry width="50" height="50" relative="1" as="geometry">
            <mxPoint x="468" y="1140" as="sourcePoint" />
            <mxPoint x="530" y="1080" as="targetPoint" />
          </mxGeometry>
        </mxCell>
        <mxCell id="Gm5ylaPToZTuttdK2CZf-19" value="" style="endArrow=none;html=1;rounded=0;exitX=0;exitY=0.5;exitDx=0;exitDy=0;entryX=1;entryY=0.5;entryDx=0;entryDy=0;" edge="1" parent="1" source="Gm5ylaPToZTuttdK2CZf-5" target="Gm5ylaPToZTuttdK2CZf-12">
          <mxGeometry width="50" height="50" relative="1" as="geometry">
            <mxPoint x="413" y="1140" as="sourcePoint" />
            <mxPoint x="320" y="1080" as="targetPoint" />
          </mxGeometry>
        </mxCell>
        <mxCell id="Gm5ylaPToZTuttdK2CZf-20" value="" style="endArrow=none;html=1;rounded=0;exitX=0;exitY=1;exitDx=0;exitDy=0;entryX=0.704;entryY=0.049;entryDx=0;entryDy=0;entryPerimeter=0;" edge="1" parent="1" source="Gm5ylaPToZTuttdK2CZf-5" target="Gm5ylaPToZTuttdK2CZf-13">
          <mxGeometry width="50" height="50" relative="1" as="geometry">
            <mxPoint x="385" y="1165" as="sourcePoint" />
            <mxPoint x="300" y="1205" as="targetPoint" />
          </mxGeometry>
        </mxCell>
        <mxCell id="Gm5ylaPToZTuttdK2CZf-24" value="" style="endArrow=none;html=1;rounded=0;entryX=1;entryY=0.5;entryDx=0;entryDy=0;exitX=0;exitY=0.5;exitDx=0;exitDy=0;" edge="1" parent="1" source="Gm5ylaPToZTuttdK2CZf-5" target="mPa8XAUCrzrkElDD_LWu-23">
          <mxGeometry width="50" height="50" relative="1" as="geometry">
            <mxPoint x="-80" y="1165" as="sourcePoint" />
            <mxPoint x="-295" y="1165" as="targetPoint" />
          </mxGeometry>
        </mxCell>
        <mxCell id="Gm5ylaPToZTuttdK2CZf-25" value="" style="endArrow=none;html=1;rounded=0;entryX=1;entryY=0.5;entryDx=0;entryDy=0;exitX=0;exitY=0.5;exitDx=0;exitDy=0;" edge="1" parent="1" source="UHQ08DxGN0Fvqs4MQAJC-8" target="Gm5ylaPToZTuttdK2CZf-5">
          <mxGeometry width="50" height="50" relative="1" as="geometry">
            <mxPoint x="915" y="1140" as="sourcePoint" />
            <mxPoint x="1140" y="770" as="targetPoint" />
          </mxGeometry>
        </mxCell>
        <mxCell id="Gm5ylaPToZTuttdK2CZf-27" value="" style="endArrow=none;html=1;rounded=0;entryX=0.5;entryY=1;entryDx=0;entryDy=0;exitX=0;exitY=0.5;exitDx=0;exitDy=0;" edge="1" parent="1" source="Gm5ylaPToZTuttdK2CZf-28" target="mPa8XAUCrzrkElDD_LWu-22">
          <mxGeometry width="50" height="50" relative="1" as="geometry">
            <mxPoint x="-10.3" y="1522.58" as="sourcePoint" />
            <mxPoint x="-370" y="1195" as="targetPoint" />
            <Array as="points">
              <mxPoint x="-365" y="1520" />
            </Array>
          </mxGeometry>
        </mxCell>
        <mxCell id="Gm5ylaPToZTuttdK2CZf-28" value="Has" style="rhombus;whiteSpace=wrap;html=1;" vertex="1" parent="1">
          <mxGeometry x="110" y="1480" width="80" height="80" as="geometry" />
        </mxCell>
        <mxCell id="Gm5ylaPToZTuttdK2CZf-29" value="" style="endArrow=none;html=1;rounded=0;entryX=0.5;entryY=1;entryDx=0;entryDy=0;exitX=1;exitY=0.5;exitDx=0;exitDy=0;" edge="1" parent="1" source="Gm5ylaPToZTuttdK2CZf-28" target="UHQ08DxGN0Fvqs4MQAJC-8">
          <mxGeometry width="50" height="50" relative="1" as="geometry">
            <mxPoint x="-80" y="1165" as="sourcePoint" />
            <mxPoint x="-295" y="1165" as="targetPoint" />
            <Array as="points">
              <mxPoint x="915" y="1520" />
            </Array>
          </mxGeometry>
        </mxCell>
        <mxCell id="Gm5ylaPToZTuttdK2CZf-31" value="&lt;u&gt;RStockID&lt;/u&gt;" style="ellipse;whiteSpace=wrap;html=1;" vertex="1" parent="1">
          <mxGeometry x="680" y="1050" width="100" height="50" as="geometry" />
        </mxCell>
        <mxCell id="Gm5ylaPToZTuttdK2CZf-32" value="" style="endArrow=none;html=1;rounded=0;entryX=0.5;entryY=1;entryDx=0;entryDy=0;exitX=0;exitY=0.5;exitDx=0;exitDy=0;" edge="1" parent="1" source="UHQ08DxGN0Fvqs4MQAJC-8" target="Gm5ylaPToZTuttdK2CZf-31">
          <mxGeometry width="50" height="50" relative="1" as="geometry">
            <mxPoint x="925" y="1140" as="sourcePoint" />
            <mxPoint x="810" y="1050" as="targetPoint" />
          </mxGeometry>
        </mxCell>
        <mxCell id="Gm5ylaPToZTuttdK2CZf-33" value="" style="endArrow=none;html=1;rounded=0;entryX=0;entryY=0.5;entryDx=0;entryDy=0;exitX=1;exitY=0.5;exitDx=0;exitDy=0;" edge="1" parent="1" source="Gm5ylaPToZTuttdK2CZf-34">
          <mxGeometry width="50" height="50" relative="1" as="geometry">
            <mxPoint x="-280" y="130" as="sourcePoint" />
            <mxPoint x="100" y="130" as="targetPoint" />
          </mxGeometry>
        </mxCell>
        <mxCell id="Gm5ylaPToZTuttdK2CZf-34" value="Retuen" style="rhombus;whiteSpace=wrap;html=1;" vertex="1" parent="1">
          <mxGeometry x="-380" y="90" width="80" height="80" as="geometry" />
        </mxCell>
        <mxCell id="Gm5ylaPToZTuttdK2CZf-35" value="" style="endArrow=none;html=1;rounded=0;exitX=0.5;exitY=1;exitDx=0;exitDy=0;" edge="1" parent="1" source="Gm5ylaPToZTuttdK2CZf-34">
          <mxGeometry width="50" height="50" relative="1" as="geometry">
            <mxPoint x="-330" y="170" as="sourcePoint" />
            <mxPoint x="-340" y="240" as="targetPoint" />
          </mxGeometry>
        </mxCell>
        <mxCell id="Gm5ylaPToZTuttdK2CZf-36" value="CreturnProducts" style="rounded=0;whiteSpace=wrap;html=1;" vertex="1" parent="1">
          <mxGeometry x="-400" y="238" width="120" height="50" as="geometry" />
        </mxCell>
        <mxCell id="Gm5ylaPToZTuttdK2CZf-37" value="&lt;u&gt;CRID&lt;/u&gt;" style="ellipse;whiteSpace=wrap;html=1;" vertex="1" parent="1">
          <mxGeometry x="-550" y="160" width="100" height="50" as="geometry" />
        </mxCell>
        <mxCell id="Gm5ylaPToZTuttdK2CZf-38" value="Date" style="ellipse;whiteSpace=wrap;html=1;" vertex="1" parent="1">
          <mxGeometry x="-560" y="245" width="100" height="50" as="geometry" />
        </mxCell>
        <mxCell id="Gm5ylaPToZTuttdK2CZf-39" value="Quantity" style="ellipse;whiteSpace=wrap;html=1;" vertex="1" parent="1">
          <mxGeometry x="-470" y="328" width="100" height="50" as="geometry" />
        </mxCell>
        <mxCell id="Gm5ylaPToZTuttdK2CZf-40" value="Reason" style="ellipse;whiteSpace=wrap;html=1;" vertex="1" parent="1">
          <mxGeometry x="-330" y="340" width="100" height="50" as="geometry" />
        </mxCell>
        <mxCell id="Gm5ylaPToZTuttdK2CZf-41" value="" style="endArrow=none;html=1;rounded=0;entryX=1;entryY=0.5;entryDx=0;entryDy=0;exitX=0;exitY=0.5;exitDx=0;exitDy=0;" edge="1" parent="1" source="Gm5ylaPToZTuttdK2CZf-36" target="Gm5ylaPToZTuttdK2CZf-37">
          <mxGeometry width="50" height="50" relative="1" as="geometry">
            <mxPoint x="-320" y="560" as="sourcePoint" />
            <mxPoint x="-394" y="502" as="targetPoint" />
          </mxGeometry>
        </mxCell>
        <mxCell id="Gm5ylaPToZTuttdK2CZf-42" value="" style="endArrow=none;html=1;rounded=0;entryX=1;entryY=0.5;entryDx=0;entryDy=0;exitX=0;exitY=0.5;exitDx=0;exitDy=0;" edge="1" parent="1" source="Gm5ylaPToZTuttdK2CZf-36" target="Gm5ylaPToZTuttdK2CZf-38">
          <mxGeometry width="50" height="50" relative="1" as="geometry">
            <mxPoint x="-390" y="273" as="sourcePoint" />
            <mxPoint x="-440" y="195" as="targetPoint" />
          </mxGeometry>
        </mxCell>
        <mxCell id="Gm5ylaPToZTuttdK2CZf-43" value="" style="endArrow=none;html=1;rounded=0;entryX=0.5;entryY=0;entryDx=0;entryDy=0;exitX=0;exitY=1;exitDx=0;exitDy=0;" edge="1" parent="1" source="Gm5ylaPToZTuttdK2CZf-36" target="Gm5ylaPToZTuttdK2CZf-39">
          <mxGeometry width="50" height="50" relative="1" as="geometry">
            <mxPoint x="-390" y="273" as="sourcePoint" />
            <mxPoint x="-450" y="280" as="targetPoint" />
          </mxGeometry>
        </mxCell>
        <mxCell id="Gm5ylaPToZTuttdK2CZf-44" value="" style="endArrow=none;html=1;rounded=0;entryX=0.5;entryY=0;entryDx=0;entryDy=0;exitX=0.5;exitY=1;exitDx=0;exitDy=0;" edge="1" parent="1" source="Gm5ylaPToZTuttdK2CZf-36" target="Gm5ylaPToZTuttdK2CZf-40">
          <mxGeometry width="50" height="50" relative="1" as="geometry">
            <mxPoint x="-390" y="298" as="sourcePoint" />
            <mxPoint x="-410" y="338" as="targetPoint" />
          </mxGeometry>
        </mxCell>
        <mxCell id="Gm5ylaPToZTuttdK2CZf-45" value="" style="endArrow=none;html=1;rounded=0;exitX=1;exitY=0.5;exitDx=0;exitDy=0;" edge="1" parent="1" source="Gm5ylaPToZTuttdK2CZf-36">
          <mxGeometry width="50" height="50" relative="1" as="geometry">
            <mxPoint x="-330" y="298" as="sourcePoint" />
            <mxPoint x="-230" y="263" as="targetPoint" />
          </mxGeometry>
        </mxCell>
        <mxCell id="Gm5ylaPToZTuttdK2CZf-46" value="Are" style="rhombus;whiteSpace=wrap;html=1;" vertex="1" parent="1">
          <mxGeometry x="-230" y="223" width="80" height="80" as="geometry" />
        </mxCell>
        <mxCell id="Gm5ylaPToZTuttdK2CZf-47" value="" style="endArrow=none;html=1;rounded=0;exitX=1;exitY=0.5;exitDx=0;exitDy=0;entryX=0.5;entryY=0;entryDx=0;entryDy=0;" edge="1" parent="1" source="Gm5ylaPToZTuttdK2CZf-46" target="mPa8XAUCrzrkElDD_LWu-14">
          <mxGeometry width="50" height="50" relative="1" as="geometry">
            <mxPoint x="-330" y="180" as="sourcePoint" />
            <mxPoint x="-330" y="250" as="targetPoint" />
            <Array as="points">
              <mxPoint x="80" y="260" />
            </Array>
          </mxGeometry>
        </mxCell>
        <mxCell id="Gm5ylaPToZTuttdK2CZf-48" value="M" style="text;html=1;align=center;verticalAlign=middle;resizable=0;points=[];autosize=1;strokeColor=none;fillColor=none;" vertex="1" parent="1">
          <mxGeometry x="-345" y="198" width="30" height="30" as="geometry" />
        </mxCell>
        <mxCell id="Gm5ylaPToZTuttdK2CZf-49" value="1" style="text;html=1;align=center;verticalAlign=middle;resizable=0;points=[];autosize=1;strokeColor=none;fillColor=none;" vertex="1" parent="1">
          <mxGeometry x="-215" y="98" width="30" height="30" as="geometry" />
        </mxCell>
        <mxCell id="Gm5ylaPToZTuttdK2CZf-50" value="1" style="text;html=1;align=center;verticalAlign=middle;resizable=0;points=[];autosize=1;strokeColor=none;fillColor=none;" vertex="1" parent="1">
          <mxGeometry x="-275" y="238" width="30" height="30" as="geometry" />
        </mxCell>
        <mxCell id="Gm5ylaPToZTuttdK2CZf-51" value="1" style="text;html=1;align=center;verticalAlign=middle;resizable=0;points=[];autosize=1;strokeColor=none;fillColor=none;" vertex="1" parent="1">
          <mxGeometry x="-45" y="238" width="30" height="30" as="geometry" />
        </mxCell>
        <mxCell id="Gm5ylaPToZTuttdK2CZf-52" value="1" style="text;html=1;align=center;verticalAlign=middle;resizable=0;points=[];autosize=1;strokeColor=none;fillColor=none;" vertex="1" parent="1">
          <mxGeometry x="405" y="1038" width="30" height="30" as="geometry" />
        </mxCell>
        <mxCell id="Gm5ylaPToZTuttdK2CZf-53" value="M" style="text;html=1;align=center;verticalAlign=middle;resizable=0;points=[];autosize=1;strokeColor=none;fillColor=none;" vertex="1" parent="1">
          <mxGeometry x="435" y="808" width="30" height="30" as="geometry" />
        </mxCell>
        <mxCell id="Gm5ylaPToZTuttdK2CZf-54" value="OrderId+productId" style="text;html=1;align=center;verticalAlign=middle;resizable=0;points=[];autosize=1;strokeColor=none;fillColor=none;" vertex="1" parent="1">
          <mxGeometry x="610" y="638" width="120" height="30" as="geometry" />
        </mxCell>
        <mxCell id="Gm5ylaPToZTuttdK2CZf-55" value="1" style="text;html=1;align=center;verticalAlign=middle;resizable=0;points=[];autosize=1;strokeColor=none;fillColor=none;" vertex="1" parent="1">
          <mxGeometry x="-175" y="1125" width="30" height="30" as="geometry" />
        </mxCell>
        <mxCell id="Gm5ylaPToZTuttdK2CZf-56" value="M" style="text;html=1;align=center;verticalAlign=middle;resizable=0;points=[];autosize=1;strokeColor=none;fillColor=none;" vertex="1" parent="1">
          <mxGeometry x="185" y="1128" width="30" height="30" as="geometry" />
        </mxCell>
        <mxCell id="Gm5ylaPToZTuttdK2CZf-57" value="1" style="text;html=1;align=center;verticalAlign=middle;resizable=0;points=[];autosize=1;strokeColor=none;fillColor=none;" vertex="1" parent="1">
          <mxGeometry x="625" y="1128" width="30" height="30" as="geometry" />
        </mxCell>
        <mxCell id="Gm5ylaPToZTuttdK2CZf-58" value="has" style="rhombus;whiteSpace=wrap;html=1;" vertex="1" parent="1">
          <mxGeometry x="670" y="1115" width="80" height="80" as="geometry" />
        </mxCell>
        <mxCell id="Gm5ylaPToZTuttdK2CZf-59" value="N" style="text;html=1;align=center;verticalAlign=middle;resizable=0;points=[];autosize=1;strokeColor=none;fillColor=none;" vertex="1" parent="1">
          <mxGeometry x="750" y="1128" width="30" height="30" as="geometry" />
        </mxCell>
        <mxCell id="Gm5ylaPToZTuttdK2CZf-60" value="1" style="text;html=1;align=center;verticalAlign=middle;resizable=0;points=[];autosize=1;strokeColor=none;fillColor=none;" vertex="1" parent="1">
          <mxGeometry x="-155" y="1478" width="30" height="30" as="geometry" />
        </mxCell>
        <mxCell id="Gm5ylaPToZTuttdK2CZf-61" value="M" style="text;html=1;align=center;verticalAlign=middle;resizable=0;points=[];autosize=1;strokeColor=none;fillColor=none;" vertex="1" parent="1">
          <mxGeometry x="325" y="1488" width="30" height="30" as="geometry" />
        </mxCell>
        <mxCell id="Gm5ylaPToZTuttdK2CZf-62" value="Bank Account&amp;nbsp;" style="ellipse;whiteSpace=wrap;html=1;" vertex="1" parent="1">
          <mxGeometry x="-530" y="1230" width="100" height="50" as="geometry" />
        </mxCell>
        <mxCell id="Gm5ylaPToZTuttdK2CZf-63" value="" style="endArrow=none;html=1;rounded=0;entryX=1;entryY=0.5;entryDx=0;entryDy=0;exitX=0.5;exitY=1;exitDx=0;exitDy=0;" edge="1" parent="1" source="mPa8XAUCrzrkElDD_LWu-22" target="Gm5ylaPToZTuttdK2CZf-62">
          <mxGeometry width="50" height="50" relative="1" as="geometry">
            <mxPoint x="-355" y="1135" as="sourcePoint" />
            <mxPoint x="-465" y="1050" as="targetPoint" />
          </mxGeometry>
        </mxCell>
      </root>
    </mxGraphModel>
  </diagram>
</mxfile>
